#!OML:ASF H:\Pregnant\Project 1\Capture day 1\Session 1\femalepreg.ASF
:FULLY-SPECIFIED
:DEGREES
657
root 7.01318 1.88561 28.5448 129.383 -27.9974 -173.417
lowerback 30.4206 1.85006 10.9696
upperback 14.5606 2.12378 1.42372
thorax 0.599509 0.178658 -5.2705
lowerneck -10.7441 0.297805 4.18279
upperneck 35.2755 -4.83539 3.68464
head 13.8408 -2.05721 -0.213197
rclavicle -1.07244e-013 1.51076e-014
rhumerus 30.7751 26.0353 -28.1798
rradius 45.0123
rwrist -3.1681
rhand 16.4918 -11.3947
rfingers 7.12502
rthumb 41.254 -36.2298
lclavicle -1.07244e-013 1.51076e-014
lhumerus -35.7896 -29.4656 67.1426
lradius 60.8652
lwrist 85.0167
lhand -49.7277 410.102
lfingers 7.12502
lthumb -22.3277 78.8317
rfemur -105.33 -32.5326 40.0831
rtibia 113.115
rfoot 27.632 21.2031
rtoes -11.5474
lfemur -105.359 373.096 335.029
ltibia 99.4009
lfoot 28.617 -385.882
ltoes 54.8347
658
root 7.00647 1.88859 28.5431 129.448 -27.9916 -173.448
lowerback 30.3216 1.78578 10.9844
upperback 14.4598 2.07534 1.40013
thorax 0.517295 0.164872 -5.29075
lowerneck -10.6978 0.372524 4.18986
upperneck 35.3899 -4.75169 3.6718
head 13.8819 -2.02775 -0.20919
rclavicle 9.54166e-015 -4.53229e-014
rhumerus 29.9048 25.5108 -28.491
rradius 45.4256
rwrist -3.39406
rhand 16.2514 -11.4563
rfingers 7.12502
rthumb 41.0283 -36.3637
lclavicle 9.54166e-015 -4.53229e-014
lhumerus -37.219 -29.6754 67.669
lradius 62.0933
lwrist 83.2822
lhand -49.2374 408.976
lfingers 7.12502
lthumb -21.857 77.7615
rfemur -105.289 -32.3252 39.9177
rtibia 113.142
rfoot 27.6638 21.1811
rtoes -11.2538
lfemur -104.741 372.992 335.817
ltibia 98.5578
lfoot 28.5374 -385.739
ltoes 53.7656
659
root 6.99858 1.89108 28.5404 129.533 -27.9918 -173.461
lowerback 30.1896 1.71454 10.9992
upperback 14.3505 2.01917 1.37755
thorax 0.43814 0.149154 -5.3072
lowerneck -10.6498 0.452725 4.20056
upperneck 35.4999 -4.6568 3.6528
head 13.9203 -1.99372 -0.206541
rclavicle 4.71368e-014 4.29375e-014
rhumerus 29.0143 24.9939 -28.8104
rradius 45.839
rwrist -3.6299
rhand 15.9153 -11.5431
rfingers 7.12502
rthumb 40.7125 -36.5502
lclavicle 4.71368e-014 4.29375e-014
lhumerus -38.7123 -29.8977 68.2551
lradius 63.301
lwrist 81.4683
lhand -48.8194 407.84
lfingers 7.12502
lthumb -21.4556 76.6715
rfemur -105.3 -32.1211 39.7668
rtibia 113.187
rfoot 27.6877 21.1572
rtoes -10.9997
lfemur -104.181 372.851 336.602
ltibia 97.7814
lfoot 28.5459 -385.549
ltoes 52.4114
660
root 6.98983 1.89316 28.5369 129.636 -27.9917 -173.46
lowerback 30.0349 1.63713 11.022
upperback 14.2292 1.95982 1.35375
thorax 0.355319 0.133877 -5.3283
lowerneck -10.6062 0.537594 4.21803
upperneck 35.6138 -4.5552 3.62837
head 13.9614 -1.95652 -0.206388
rclavicle -7.96133e-014 8.0309e-014
rhumerus 28.086 24.4821 -29.1517
rradius 46.2534
rwrist -3.86614
rhand 15.4787 -11.6469
rfingers 7.12502
rthumb 40.3021 -36.7811
lclavicle -7.96133e-014 8.0309e-014
lhumerus -40.2654 -30.1429 68.9025
lradius 64.4756
lwrist 79.5728
lhand -48.5109 406.696
lfingers 7.12502
lthumb -21.1592 75.5609
rfemur -105.353 -31.9129 39.6303
rtibia 113.243
rfoot 27.7016 21.1318
rtoes -10.8205
lfemur -103.686 372.68 337.373
ltibia 97.0714
lfoot 28.5632 -385.369
ltoes 50.8595
661
root 6.97965 1.89453 28.5315 129.801 -27.9547 -173.428
lowerback 29.8069 1.55843 11.0815
upperback 14.0828 1.91229 1.33313
thorax 0.280876 0.131092 -5.3685
lowerneck -10.562 0.62447 4.24579
upperneck 35.7293 -4.45298 3.60245
head 14.0032 -1.91812 -0.208612
rclavicle -1.13556e-014 3.18055e-015
rhumerus 27.1013 23.9811 -29.5196
rradius 46.6765
rwrist -4.09558
rhand 14.9164 -11.7598
rfingers 7.12502
rthumb 39.7729 -37.0539
lclavicle -1.13556e-014 3.18055e-015
lhumerus -41.8854 -30.4325 69.6201
lradius 65.6122
lwrist 77.5931
lhand -48.3683 405.578
lfingers 7.12502
lthumb -21.0223 74.4584
rfemur -105.495 -31.6456 39.5628
rtibia 113.309
rfoot 27.703 21.0979
rtoes -10.7628
lfemur -103.35 372.499 338.147
ltibia 96.4488
lfoot 28.5821 -385.222
ltoes 49.1515
662
root 6.96869 1.89552 28.5254 130.004 -27.8941 -173.373
lowerback 29.5413 1.47733 11.177
upperback 13.916 1.87476 1.31083
thorax 0.204603 0.13779 -5.43303
lowerneck -10.5207 0.710679 4.28931
upperneck 35.8464 -4.35543 3.5745
head 14.0464 -1.87995 -0.215198
rclavicle 6.06542e-014 -2.38542e-014
rhumerus 26.0454 23.4856 -29.9219
rradius 47.1111
rwrist -4.32067
rhand 14.225 -11.8878
rfingers 7.12502
rthumb 39.1217 -37.3729
lclavicle 6.06542e-014 -2.38542e-014
lhumerus -43.5641 -30.7736 70.4098
lradius 66.6968
lwrist 75.5236
lhand -48.3901 404.544
lfingers 7.12502
lthumb -21.0432 73.4223
rfemur -105.681 -31.3354 39.5276
rtibia 113.376
rfoot 27.6931 21.0616
rtoes -10.8289
lfemur -103.122 372.311 338.914
ltibia 95.8994
lfoot 28.5972 -385.093
ltoes 47.2795
663
root 6.95719 1.89636 28.5191 130.225 -27.815 -173.299
lowerback 29.2587 1.39589 11.3036
upperback 13.7374 1.84626 1.28764
thorax 0.127362 0.151522 -5.51841
lowerneck -10.4844 0.793742 4.34886
upperneck 35.9575 -4.264 3.54423
head 14.0881 -1.84225 -0.2264
rclavicle 1.2921e-014 4.45278e-014
rhumerus 24.922 22.9969 -30.3474
rradius 47.5604
rwrist -4.55221
rhand 13.4044 -12.0384
rfingers 7.12502
rthumb 38.3477 -37.7422
lclavicle 1.2921e-014 4.45278e-014
lhumerus -45.2908 -31.1569 71.2723
lradius 67.7164
lwrist 73.3719
lhand -48.6188 403.677
lfingers 7.12502
lthumb -21.2629 72.5305
rfemur -105.882 -30.996 39.507
rtibia 113.439
rfoot 27.6697 21.0266
rtoes -11.0154
lfemur -102.96 372.12 339.68
ltibia 95.414
lfoot 28.6449 -384.955
ltoes 45.1135
